<?xml version="1.0" encoding="utf-8"?>
<!-- Generator: Adobe Illustrator 28.0.0, SVG Export Plug-In . SVG Version: 6.00 Build 0)  -->
<svg version="1.1" id="レイヤー_1" xmlns="http://www.w3.org/2000/svg" xmlns:xlink="http://www.w3.org/1999/xlink" x="0px"
	 y="0px" viewBox="0 0 496.06 737.01" style="enable-background:new 0 0 496.06 737.01;" xml:space="preserve">
<g>
	<path d="M170.43,10.36c4.39-3.32,8.81-0.41,12.79,1.02c8.27,2.98,16.37,5.76,25.36,5.33c7.68-0.37,14.77-3.16,22.16-4.41
		c3.72-0.63,8.69,1.16,11.89,3.57c11.34,8.54,22.26,17.71,33.11,26.92c2.11,1.79,3.38,4.76,4.77,7.34c0.92,1.72,0.95,4.06,2.09,5.54
		c5.55,7.2,2.04,14.04-0.06,21.21c-1.64,5.61-4.99,9.12-9.69,11.87c-1.13,0.66-1.73,2.39-2.43,3.71c-1.19,2.26-2.27,4.59-4.07,6.26
		c0.21,3.41,1,6.92,0.52,10.22c-2.3,15.74-1.13,32.01-6.8,47.25c-1.23,3.31-1.88,6.94-2.16,10.48c-0.1,1.28,1.37,3.33,2.63,3.99
		c6.35,3.34,12.78,6.54,19.34,9.4c10.18,4.44,20.49,7.95,29.54,15.38c8.33,6.84,18.75,10.94,28.22,16.3c3.54,2,7.02,4.13,10.52,6.21
		c0.6,0.35,1.74,0.82,1.7,1.06c2.12,4.05,5.53,6.4,8.73,8.98c5.29,4.26,7.88,5.03,10.79,6.84c-0.5-2.5,0.05-0.73-0.48-3.37
		c3.06,2,5.88,3.11,7.71,5.16c6.6,7.37,13.2,10.13,22.17,14.07c1.42,0.62,2.72,1.52,3.85,2.62c5.36,5.21,11.4,8.97,18.62,10.92
		c9.9,2.68,19.85,5.36,29.47,8.94c7.41,2.76,14.31,6.98,21.51,10.39c3.96,1.87,8.07,3.41,12.84,5.4c-0.92,1.54-1.8,3.15-2.8,4.66
		c-1.76,2.64-3.52,5.29-5.43,7.8c-1.75,2.3-4.21,4.04-5.96,6.29c-0.62,0.8-1.44,1.4-2.28,1.94c-1.19,0.75-2.21,2.35-3.56,2.83
		c-12.16,4.27-23.94,9.74-37.47,8.31c-8.47-0.9-17.14,0.43-25.7,0.08c-12.13-0.5-23.72-3.6-34.65-9.28
		c-10.52-5.46-15.92-16.14-23.7-24.39c-4.12-4.36-8.13-9.37-13.18-12.14c-9.64-5.28-16.03-13.68-23.05-21.71
		c-7.2-8.24-15.27-15.68-22.44-23.96c-9.1-10.52-17.48-21.71-26.56-32.24c-3.97-4.6-5.96-9.2-4.81-15.46
		c-2.47,6.41-2.92,13.42-5.5,19.77c-2.5,10.65-7.43,19.22-13.87,31.46c-7.07,7.47-17.64,24.65-25.17,31.65
		c-7.3,6.78-14.25,14-21.88,20.36c-6.14,5.12-8.2,6.3-25.38,19.16c-15.15,11.34-27.93,19.16-51.87,22.77
		c-8.18,1.23-12.15,1.07-21.73-2.67c-2.64,0.02-10.21-3.67-12.09-4.2c-4.68-4.92-9.73-7.02-9.22-12.09
		c0.89-8.8,1.47-13.92,4.14-21.31c2.22,3.7,2.91,5.15,4.89,8.93c4.34,8.31,32.99-10.22,40.3-12.16c7.01-1.86,15.28-7.94,21.11-12.23
		c6.82-5.02,14.55-10.52,20.27-16.99c6.37-7.21,10.52-10.39,16.15-18.21c9.3-12.93,17.47-26.72,21.22-42.28
		c4.44-18.44,8.19-37.09,11.64-55.76c1.75-9.48,2.58-19.2,3.03-28.85c0.3-6.47-0.96-13.01-1.26-19.53
		c-0.28-5.97-0.13-11.96-0.33-17.94c-0.05-1.39-0.36-3.23-1.25-4.05c-2.72-2.52-5.77-4.68-8.73-6.93c-2.74-2.08-6.19-3.55-8.14-6.23
		c-3.38-4.64-6.33-9.78-8.55-15.12c-2.62-6.29-4.14-13.07-6.39-19.54C173.82,16.76,172.18,14,170.43,10.36z"/>
	<path d="M347.28,385.85c-9.35,0-17.51,0-25.35,0c6.15,15.53,20.14,29.61,17.05,49.43c-1.77,0-3.1,0-4.88,0
		c0.26,2.78,0.48,5.11,0.7,7.45c-0.41-0.18-0.81-0.36-1.22-0.54c-1.27,2.21-2.55,4.41-4.51,7.8c-1.79,0-5.24,0-9.39,0
		c0.62,2.13,1.09,3.74,1.75,6.03c-15.13,2.65-28.04-1.43-37.9-12.25c-7.04-7.73-16.07-15.07-15.13-27.49
		c-10.16-14.42-4.66-29.68-2.87-44.93c0.73-6.26-1.5-12.81-1.8-19.25c-0.23-5.06,0.44-10.17,0.67-14.48c4.77,0,8.41,0.95,11.22-0.18
		c7.7-3.1,13.84-0.77,19.1,4.51c4.77,4.78,10.17,8.64,12.04,16.42c1.5,6.23,7.2,11.44,11.37,17.61c7.46-2.93,15.6-5.86,23.48-9.35
		c3.72-1.65,5.51-4.25,4.05-9.34c-1.74-6.05-2.1-12.69-1.92-19.05c0.2-7.08-1.32-12.68-7.87-16.25c-0.99-0.54-1.65-1.68-2.46-2.54
		c9.87-9.54,32.68-8.4,40.03,6.83c2.93,6.07,5.92,11.81,3.71,19.19c-1.56,5.21-0.38,7.99,7.18,6.85c7.65-1.15,16.72-1.49,23.02,5.42
		c1.11,1.22,1.54,5.06,0.7,5.74c-3.84,3.12-8.07,5.91-12.51,8.14c-4.42,2.22-9.74,2.91-13.74,5.63c-2.68,1.82-4.77,5.86-5.32,9.2
		c-1.23,7.58-1.57,15.33-1.86,23.02c-0.28,7.65-0.06,15.31-0.06,23.5c5.14,1.12,10.48,2.26,15.81,3.46c5.12,1.16,12.17,9.95,11,15.5
		c-1.03,4.9-3.11,9.85-9.3,11.78c-14.56,4.53-20.08,12.7-20.5,28.49c-0.04,1.56-1.01,3.1-1.93,5.75c6.2,0,12.05,0.23,17.88-0.05
		c13.59-0.64,27.31-0.55,40.71-2.55c20.36-3.04,40.51-7.59,60.73-11.55c6.53-1.28,8.15,0.03,6.98,6.49
		c-0.46,2.55-1.32,5.3-2.83,7.34c-9.01,12.13-16.97,25.35-32.08,31.36c-2.28,0.91-3.87,3.45-5.95,5
		c-6.62,4.92-14.67,8.67-19.57,14.91c-3.83,4.88-7.17,8.87-13.05,10.78c-13.42,4.35-26.93,3.22-40.02-0.51
		c-16.96-4.83-33.28-12.18-50.43-15.96c-14.47-3.19-27.14-9.41-39.89-16.11c-1.5-0.79-3.5-1.39-4.27-2.68
		c-2.04-3.41-3.53-7.15-5.24-10.76c3.96-1.15,8.18-3.78,11.84-3.16c9.6,1.63,34.79-11.81,37.35-20.84c0.86-3.04-6.24-4.26-9.26-6.52
		c-10.71-8.01-10.88-8.96-1.18-18.82c8.53-8.68,16.54-17.87,24.72-26.88c0.61-0.67,1.12-1.71,1.13-2.58
		C347.29,418.74,347.28,402.63,347.28,385.85z"/>
	<path d="M257.36,359.28c2.09,5.27-0.64,9.25-3.64,12.15c-8.07,7.81-16.66,15.04-25.02,22.52c-1.22,1.09-2.72,2.07-3.44,3.47
		c-6.35,12.35-17.64,18.79-28.42,25.57c-5.54,3.48-11.87,6.9-18.11,7.53c-9.97,1.01-19.99-1.41-29.37-5.51
		c-12.83-5.6-25.28-12.32-38.41-16.92c-12.79-4.47-23.25-13-35.04-19.12c-3.56-1.84-6.99-3.94-10.49-5.92
		c-0.02-0.9-0.03-1.79-0.05-2.69c2.85-1.19,5.75-2.26,8.53-3.6c3.11-1.49,6.05-3.38,9.2-4.79c16.38-7.35,33.55-11.41,51.32-11.81
		c12.15-0.27,24.33,0.72,36.5,0.97c23.04,0.48,46.08,1.05,69.12,1.1C245.7,362.23,251.38,360.35,257.36,359.28z"/>
	<path d="M192.98,479.55c13.5-2.71,27.96-4.87,43.8-1.07c-3.92,3.61-6.81,7.35-10.54,9.51c-12.77,7.38-26.62,11.34-41.09,13.44
		c-6.35,0.92-12.49,3.41-20.5,5.69c12.75,1.63,16.4,10.12,16.82,21.41c3.31-1.09,6.02-1.52,8.23-2.87c1.31-0.8,2.58-3.06,2.56-4.65
		c-0.1-8.2,7.37-17.86,15.05-18.92c4.97-0.68,7.58,2.11,6.8,7.24c-0.2,1.31-0.36,2.63-0.43,3.96c-0.07,1.29-0.02,2.59-0.02,5.33
		c9.94-2.92,19.19-5.63,28.43-8.35c0.18,0.29,0.37,0.58,0.55,0.87c-4.9,3.21-9.67,6.65-14.72,9.56c-4.6,2.65-9.54,4.64-14.23,7.14
		c-1.18,0.63-2.13,1.95-2.9,3.16c-3.91,6.13-7.39,12.59-11.69,18.4c-2.92,3.94-6.9,7.02-10.47,10.42c-1.6,1.52-3.29,2.97-5.06,4.28
		c-1.94,1.42-4.74,4.21-5.87,3.62c-2.49-1.28-4.77-4-5.98-6.7c-1.07-2.39-0.48-5.57-0.81-8.37c-0.17-1.41-0.75-2.76-1.28-4.62
		c-11.02,6.69-20.87,12.67-24.7,26.65c-3.66,13.34-11.99,24.85-22.12,33.77c-6.89,6.07-15.77,9.71-23.9,14.14
		c-1.27,0.69-4.35,0.43-4.79-0.42c-1.22-2.36-2.7-5.77-1.91-7.86c3.22-8.49,8.3-14.42,17.9-16.72c6.07-1.45,12.04-6.57,16.41-11.62
		c4.23-4.89,6.47-11.72,9.34-17.83c1.19-2.52,0.55-4.13-2.44-5.6c-4.3-2.12-8.58-5.04-11.7-8.7c-1.39-1.62-0.75-6.35,0.49-8.82
		c0.88-1.75,4.29-2.69,6.65-2.87c3.15-0.25,6.39,0.58,9.59,0.95c0.25-0.63,0.5-1.26,0.76-1.88c-0.99-1.04-1.87-2.23-2.98-3.11
		c-6.7-5.36-7.42-8.08-5.27-16.87c0.5-2.04,0.11-4.75-0.79-6.68c-4.53-9.72-0.59-23.01,8.16-26.41c1.26-0.49,3.07-1,4.06-0.43
		c9.65,5.57,18.36-0.24,27.32-2.42c0.91-0.22,2.19-3.37,1.73-4.37c-2.62-5.75-5.68-11.28-8.66-16.84c-0.43-0.8-1.25-1.37-1.88-2.05
		c-3.73-4.04-3.56-7.56,0.92-11.01c3.46-2.66,6.5-5.93,9.93-8.64c5.07-4,9.67,1.03,14.56,1.25c1.54,0.07,3.03,1.18,4.54,1.8
		c6.63,2.73,9.48,9.62,7.05,16.85c-0.54,1.59-0.71,3.31-1.18,4.93C195.54,471.17,194.33,475.07,192.98,479.55z M192.08,537.71
		c-9.02,0.63-9.38,7.85-10.46,14.71C189.56,552.62,191.97,548.19,192.08,537.71z M158,518.91c1.41-3.25,2.97-6.84,5.07-11.68
		c-5.43,1.58-9.53,2.76-13.4,3.89C152.56,513.83,155.06,516.16,158,518.91z M163.76,535.09c-0.02-0.53-0.04-1.07-0.07-1.6
		c-1.69-0.76-3.39-1.52-3.82-1.71c-0.72-3.03-1.2-5.08-1.69-7.14c-0.47,0.12-0.94,0.25-1.41,0.37c-0.94,4.3-1.89,8.6-3.09,14.05
		C157.71,537.47,160.74,536.28,163.76,535.09z"/>
	<path d="M49.09,593.12c3.38-2.23,6.63-6.04,10.16-6.35c7.21-0.62,14.58,0.53,21.86,1.21c2.6,0.24,5.36,0.77,7.63,2
		c2.69,1.46,6.79,3.67,6.94,5.82c0.27,3.73-1.6,7.89-3.35,11.46c-2.51,5.1-6.6,9.49-8.43,14.78c-2.75,7.92,2.45,13.64,7.13,19.04
		c5.27,6.08,6.02,18.37,1.67,25.32c-1.36,2.17-2.09,4.79-2.92,7.28c-2.49,7.43-4.6,15-7.39,22.3c-3.29,8.61-6.88,17.12-10.84,25.41
		c-2.24,4.67-4.89,9.55-8.55,12.88c-2.04,1.86-6.85,1.71-9.87,0.7c-3.17-1.06-5.71-1.77-9.23-1.21c-7.89,1.26-15.95,1.72-23.95,1.76
		c-7.53,0.04-9.8-3.63-8.83-11.5c0.22-1.82-0.82-4.38-2.11-5.73c-4-4.22-3.2-8.95-1.93-13.75c0.79-2.98,2.24-4.27,5.66-2.6
		c12.27,5.98,28.42,0.77,35.9-10.95c3.94-6.17,8.21-12.12,12.47-18.06c5.17-7.2,4.88-15.36,3.3-23.39
		c-0.93-4.72-4.18-8.95-5.07-13.68c-0.97-5.13-0.44-10.58-0.55-15.9c-0.11-5.05,1.05-10.64-0.67-14.99
		c-1.46-3.7-6.21-5.98-9.51-8.89C48.76,595.1,48.93,594.11,49.09,593.12z"/>
	<path d="M198.31,596.99c5.81,0.89,10.9,1.5,15.91,2.49c7.27,1.43,14.8,2.24,21.66,4.91c12.59,4.91,24.88,6.33,37.56,0.93
		c1.55-0.66,3.33-0.72,5-1.05c0.5,0.51,0.99,1.01,1.49,1.52c-2.68,4.5-4.63,9.81-8.2,13.32c-7.93,7.81-16.49,15.03-28.11,16.13
		c-1.59,0.15-3.41,0.51-4.64,1.45c-7.71,5.92-14.32,3.33-20.65-2.54c-0.5-0.47-1.24-0.89-1.89-0.92
		c-9.48-0.45-15.65-7.11-22.62-12.6c-4.21-3.32-9.51-5.12-14.24-7.56c-4.03,2.71-8.15,5.73-12.51,8.27c-1.89,1.1-5.22,2.4-6.27,1.51
		c-1.48-1.26-1.45-4.47-1.72-5.51c5.08-3.02,9.07-5.39,13.41-7.97c-2.97-3.51-5.11-5.81-6.95-8.35c-0.75-1.03-0.78-2.6-1.24-3.88
		c-0.44-1.24-0.8-2.61-1.57-3.59c-2.84-3.61-5.85-7.08-8.33-11.39c15.52-0.76,27.04-10.43,40.13-15.71
		c0.89-0.36,1.73-1.43,2.15-2.39c4.58-10.46,12.08-13.14,21.38-7.57c7.2,4.32,6.99,7.04,1.02,13.46
		c-5.38,5.78-9.69,12.65-14.49,19.02C202.91,591.16,201.19,593.3,198.31,596.99z M169.32,592.31c11.07,5.66,19.2,0.22,23.74-15.32
		C185.15,582.1,177.24,587.2,169.32,592.31z"/>
	<path d="M61.76,530.45c0.96-1.34,1.92-2.67,2.92-4.07c-1.61-3.21-3.67-4.16-6.63-2.18c-14.26,9.52-28.19,4.38-42.07-1.12
		c-2.81-1.11-5.43-2.77-8.21-4.21c6.83-8.4,15.63-13.69,26.42-15.27c3.06-0.45,6.2-0.58,9.18-1.39c1.97-0.53,3.71-2,5.56-3.04
		c-1.39-2.2-2.4-4.93-4.29-6.46c-1.89-1.54-4.77-1.66-7.03-2.8c-5.26-2.64-10.42-5.51-15.61-8.31c-3.67-1.98-7.51-3.71-10.93-6.1
		c-3.31-2.31-6.18-5.32-10.41-9.04c4.06-1.51,7.05-3.21,10.2-3.68c7.89-1.16,15.85-1.72,23.77-2.63c1.5-0.17,2.92-0.95,4.41-1.31
		c1.72-0.42,3.66-1.36,5.17-0.89c9.66,2.99,19.3,6.07,28.77,9.64c3.09,1.17,6.1,3.45,8.36,6c4.95,5.58,3.53,12.55-2.81,16.14
		c-1.91,1.08-3.79,2.24-6.24,3.7c1.79,2.45,3.39,4.81,5.16,7.04c6.24,7.88,10.81,16.44,11.13,27.05c0.18,6.03-1.86,8.92-7.66,9.77
		C74.24,538.24,71.54,537.28,61.76,530.45z"/>
	<path d="M44.51,640.72c0.27,6.14-2.48,10-8.2,11.93c-2.58,0.87-5.07,1.97-7.65,2.86c-7.91,2.71-11.82,0.94-16.14-6.32
		c-3.63-6.1-8.62-11.55-8.44-19.25c0.08-3.56-0.76-8.23,1.12-10.36c1.87-2.12,6.74-2.6,10.09-2.17c6.91,0.88,13.64,3.08,20.52,4.23
		c3.16,0.53,4.88,1.52,5.47,4.8C42.15,631.23,43.42,635.96,44.51,640.72z"/>
	<path d="M21.61,542.9c5.94,1.04,11.91,1.97,17.83,3.13c6.89,1.35,13.83,2.57,20.58,4.49c3.19,0.91,6.1,3.16,8.92,5.12
		c0.88,0.61,1.36,2.23,1.57,3.48c1,5.75-4.22,18.82-9.11,21.22c-2.29,1.12-5.83,1.16-8.19,0.13c-11.33-4.94-19.67-13.53-25.82-24.62
		c-2.17-3.92-4.91-7.49-7.39-11.23C20.54,544.05,21.07,543.48,21.61,542.9z"/>
</g>
</svg>
